<svg width="17" height="14" viewBox="0 0 17 14" fill="none" xmlns="http://www.w3.org/2000/svg">
<path fill-rule="evenodd" clip-rule="evenodd" d="M16.5248 2.58121C16.5248 2.30311 16.4182 2.02485 16.2263 1.82464L14.7764 0.31155C14.5845 0.111175 14.3179 0 14.0514 0C13.7849 0 13.5183 0.111175 13.3264 0.31155L6.33274 7.62146L3.19835 4.33912C3.00645 4.13891 2.73991 4.02757 2.47338 4.02757C2.20683 4.02757 1.9403 4.13891 1.7484 4.33912L0.29849 5.8524C0.106571 6.05261 0 6.33068 0 6.60896C0 6.88704 0.106571 7.16513 0.29849 7.36551L5.60776 12.9064C5.79967 13.1066 6.06621 13.2179 6.33274 13.2179C6.59927 13.2179 6.86575 13.1066 7.05764 12.9064L16.2263 3.33775C16.4182 3.13756 16.5248 2.85947 16.5248 2.58121Z" fill="white"/>
</svg>
