<svg width="17" height="20" viewBox="0 0 17 20" fill="none" xmlns="http://www.w3.org/2000/svg">
<path fill-rule="evenodd" clip-rule="evenodd" d="M16.4817 14.0825C15.8054 13.8852 15.1978 13.4244 14.6704 12.7002C14.1431 11.9762 13.8794 11.1535 13.8794 10.2539C13.8794 9.42026 14.1316 8.66317 14.6246 7.98302C14.8997 7.59918 15.3354 7.17135 15.9315 6.68856C15.5417 6.2278 15.1404 5.85489 14.7392 5.59164C14.0284 5.1198 13.2145 4.87857 12.2973 4.87857C11.7356 4.87857 11.0707 5.01011 10.3141 5.2515C9.55745 5.5038 9.00713 5.62442 8.67466 5.62442C8.41102 5.62442 7.88368 5.51473 7.09265 5.29533C6.29011 5.07595 5.62525 4.96626 5.0635 4.96626C3.74512 4.96626 2.66747 5.49288 1.80766 6.54595C0.947852 7.61011 0.512207 8.97041 0.512207 10.6489C0.512207 12.4479 1.08544 14.2801 2.19747 16.1668C3.3324 18.0538 4.46733 19.0082 5.64816 19.0082C6.02649 19.0082 6.5309 18.8876 7.16142 18.6353C7.78049 18.3939 8.33077 18.2731 8.78934 18.2731C9.25934 18.2731 9.844 18.3828 10.5204 18.6242C11.2082 18.8547 11.7356 18.9753 12.1254 18.9753C13.0998 18.9753 14.0858 18.2622 15.0717 16.8252C15.7366 15.8707 16.1952 14.9492 16.4817 14.0825ZM12.1712 1.21444C12.1712 1.13767 12.1598 1.0718 12.1598 0.995036C12.1483 0.929194 12.1254 0.852426 12.1024 0.753662C10.7726 1.04981 9.80965 1.58752 9.23641 2.37736C8.66323 3.1672 8.36518 4.11058 8.34225 5.19657C8.88102 5.15272 9.27082 5.08688 9.53447 5.01011C9.94718 4.87857 10.3599 4.61518 10.7726 4.22027C11.2541 3.75949 11.6095 3.25489 11.8388 2.70643C12.0566 2.16888 12.1712 1.66428 12.1712 1.21444Z" fill="white"/>
</svg>
