<svg width="20" height="23" viewBox="0 0 20 23" fill="none" xmlns="http://www.w3.org/2000/svg">
<path fill-rule="evenodd" clip-rule="evenodd" d="M7.64678 5.17217C7.36325 5.17217 7.13372 4.93339 7.13372 4.65484C7.13372 4.37629 7.36325 4.13753 7.64678 4.13753C7.94379 4.13753 8.17332 4.37629 8.17332 4.65484C8.17332 4.93339 7.94379 5.17217 7.64678 5.17217ZM13.3441 5.17217C13.0471 5.17217 12.8176 4.93339 12.8176 4.65484C12.8176 4.37629 13.0471 4.13753 13.3441 4.13753C13.6276 4.13753 13.8571 4.37629 13.8571 4.65484C13.8571 4.93339 13.6276 5.17217 13.3441 5.17217ZM2.38148 7.61293C1.61191 7.61293 0.990906 8.22316 0.990906 8.9659V14.6698C0.990906 15.426 1.61191 16.0362 2.38148 16.0362C3.15097 16.0362 3.75853 15.426 3.75853 14.6698V8.9659C3.75853 8.22316 3.13752 7.61293 2.38148 7.61293ZM16.6922 7.86492H4.29857V16.6995C4.29857 17.5086 4.96014 18.1586 5.78366 18.1586H6.7827L6.79621 21.1698C6.79621 21.9259 7.41728 22.5362 8.17332 22.5362C8.94283 22.5362 9.56387 21.9259 9.56387 21.1698V18.1586H11.427V21.1698C11.427 21.9259 12.048 22.5362 12.8176 22.5362C13.5871 22.5362 14.2081 21.9259 14.2081 21.1698V18.1586H15.2207C16.0307 18.1586 16.6922 17.5086 16.6922 16.6995V7.86492ZM13.5601 2.49263L14.5187 0.754861C14.5726 0.662112 14.5457 0.542656 14.4512 0.489668C14.3566 0.449732 14.2351 0.476314 14.1812 0.569213L13.209 2.32019C12.3855 1.96195 11.4675 1.7631 10.4954 1.7631C9.52337 1.7631 8.6053 1.96195 7.78177 2.32019L6.80972 0.569213C6.75571 0.476314 6.63419 0.449732 6.5397 0.489668C6.44517 0.542656 6.41818 0.662112 6.47222 0.754861L7.43073 2.49263C5.52717 3.44775 4.2446 5.27828 4.2446 7.38734H16.7328C16.7328 5.27828 15.4502 3.44775 13.5601 2.49263ZM20 8.9659C20 8.20981 19.3789 7.61293 18.6094 7.61293C17.8534 7.61293 17.2323 8.20981 17.2323 8.9659V14.6698C17.2323 15.426 17.8534 16.0362 18.6094 16.0362C19.3789 16.0362 20 15.426 20 14.6698V8.9659Z" fill="white"/>
</svg>
